<?xml version="1.0" standalone="no"?>
<!DOCTYPE svg PUBLIC "-//W3C//DTD SVG 20010904//EN"
 "http://www.w3.org/TR/2001/REC-SVG-20010904/DTD/svg10.dtd">
<svg version="1.0" xmlns="http://www.w3.org/2000/svg"
 width="538.000000pt" height="538.000000pt" viewBox="0 0 538.000000 538.000000"
 preserveAspectRatio="xMidYMid meet">
<metadata>
Created by potrace 1.11, written by Peter Selinger 2001-2013
</metadata>
<g transform="translate(0.000000,538.000000) scale(0.100000,-0.100000)"
fill="#000000" stroke="none">
<path d="M2524 5251 c-26 -16 -33 -17 -49 -5 -27 20 -85 17 -122 -6 -27 -16
-37 -17 -63 -8 -38 13 -88 4 -115 -22 -16 -15 -27 -17 -55 -11 -43 9 -91 -2
-115 -28 -14 -16 -26 -19 -60 -15 -45 7 -97 -13 -116 -44 -8 -13 -22 -16 -60
-14 -45 4 -52 1 -85 -32 -28 -28 -44 -36 -71 -36 -42 0 -87 -25 -104 -57 -10
-18 -21 -23 -50 -23 -29 0 -47 -8 -74 -31 -19 -17 -35 -37 -35 -45 0 -9 -11
-14 -30 -14 -45 0 -83 -24 -105 -64 -16 -28 -26 -36 -48 -36 -32 0 -97 -56
-97 -84 0 -9 -15 -19 -39 -26 -41 -11 -77 -47 -87 -85 -4 -14 -20 -28 -44 -38
-38 -15 -80 -65 -80 -97 0 -8 -17 -23 -38 -32 -41 -19 -72 -62 -72 -102 0 -17
-5 -26 -16 -26 -9 0 -31 -15 -50 -34 -25 -25 -34 -43 -34 -68 0 -26 -6 -36
-29 -50 -40 -22 -63 -60 -63 -102 0 -26 -5 -37 -19 -41 -31 -10 -62 -63 -63
-108 0 -33 -7 -47 -28 -65 -31 -26 -51 -80 -43 -113 4 -18 -2 -31 -24 -51 -30
-29 -41 -67 -31 -108 5 -19 -1 -33 -23 -59 -27 -32 -29 -39 -24 -92 4 -48 2
-61 -14 -75 -25 -22 -34 -77 -19 -113 10 -24 8 -33 -9 -62 -23 -38 -27 -85
-10 -123 9 -19 8 -29 -5 -47 -20 -30 -21 -98 0 -127 l16 -23 35 22 35 22 25
-26 c22 -21 26 -35 27 -87 2 -63 -10 -87 -39 -76 -8 3 -15 13 -15 22 0 9 -10
26 -23 38 -12 12 -30 32 -39 46 -15 21 -19 23 -27 10 -17 -24 -12 -93 8 -119
16 -21 17 -27 5 -50 -20 -38 -17 -84 7 -115 18 -23 20 -32 11 -67 -12 -47 -7
-74 23 -114 17 -23 20 -35 12 -52 -14 -31 -1 -86 28 -113 21 -19 23 -29 18
-65 -5 -43 11 -84 46 -113 10 -8 14 -26 12 -57 -3 -53 14 -66 52 -41 20 14 26
14 36 3 8 -11 7 -24 -4 -57 -8 -23 -15 -51 -15 -62 0 -32 31 -89 55 -100 16
-7 24 -22 28 -51 6 -45 33 -87 65 -102 14 -6 23 -22 27 -47 8 -46 35 -81 75
-98 24 -10 30 -18 30 -42 0 -36 57 -98 89 -98 15 0 21 -6 21 -21 0 -46 60
-109 104 -109 10 0 16 -8 16 -21 0 -18 33 -57 83 -96 9 -7 23 -10 31 -7 11 4
16 0 16 -11 0 -27 63 -83 101 -90 24 -4 38 -14 47 -33 17 -37 54 -61 96 -64
24 -2 38 -9 42 -20 9 -31 64 -68 99 -68 25 0 42 -9 73 -40 35 -35 45 -40 86
-40 37 0 48 -4 61 -24 20 -31 64 -49 109 -45 25 3 42 -3 58 -18 38 -34 68 -45
103 -39 26 5 42 1 71 -19 37 -25 81 -31 119 -16 14 6 28 2 48 -15 30 -25 98
-33 126 -15 9 6 25 2 45 -10 34 -21 96 -25 127 -9 14 8 27 7 48 -5 38 -19 84
-19 120 0 26 13 33 13 61 -1 37 -19 93 -13 120 11 14 13 23 14 39 6 31 -17 91
-13 126 9 26 16 38 18 66 10 39 -12 88 1 113 29 14 16 22 17 50 9 42 -13 76
-5 115 27 22 19 36 24 55 19 35 -8 92 13 116 43 14 17 26 24 40 20 34 -9 87
12 114 43 20 24 33 30 65 30 34 0 47 6 81 40 23 23 50 40 63 40 32 0 85 36
105 70 12 22 25 30 44 30 30 0 93 49 103 80 3 10 19 20 39 24 36 7 79 47 95
89 7 18 18 27 32 27 27 0 89 62 89 89 0 14 13 26 44 40 44 19 76 60 76 98 0
10 14 24 33 33 37 17 77 72 77 106 0 14 8 25 20 29 33 10 70 63 70 101 0 27 6
36 30 49 35 18 60 62 60 105 0 22 8 38 29 56 33 27 56 83 46 113 -4 13 5 29
30 54 33 33 36 41 34 84 -2 40 2 53 23 76 31 33 41 77 27 114 -8 22 -6 30 16
53 30 31 42 88 26 118 -9 17 -7 28 14 58 27 40 31 68 15 110 -8 21 -6 36 12
72 21 44 21 47 5 91 -14 39 -14 48 -1 72 18 36 18 92 0 128 -13 23 -13 34 -2
66 15 42 7 98 -17 123 -13 12 -13 19 -1 49 17 38 7 92 -22 124 -13 15 -14 24
-6 48 13 37 0 91 -27 115 -16 15 -18 27 -14 70 5 48 3 55 -26 88 -25 29 -30
41 -25 66 7 35 -19 98 -47 113 -14 7 -19 21 -19 51 0 46 -31 104 -60 113 -15
5 -20 15 -20 43 0 44 -30 97 -59 107 -14 4 -21 15 -21 33 0 36 -34 89 -69 110
-21 12 -31 26 -35 52 -6 38 -46 83 -83 95 -14 4 -23 14 -23 27 0 34 -33 78
-71 95 -27 12 -41 27 -52 54 -15 38 -66 79 -97 79 -9 0 -22 15 -29 35 -14 40
-58 75 -94 75 -18 0 -28 8 -37 30 -16 37 -51 66 -92 75 -17 4 -49 26 -72 51
-34 35 -49 44 -77 44 -27 0 -40 7 -62 35 -27 34 -85 59 -113 48 -8 -3 -25 8
-39 25 -29 35 -85 57 -120 48 -18 -5 -27 -1 -35 14 -18 33 -68 53 -116 46 -31
-4 -44 -2 -48 9 -10 28 -66 48 -116 41 -36 -5 -50 -3 -60 9 -21 25 -84 39
-120 26 -28 -9 -36 -8 -57 9 -28 22 -111 28 -129 10 -7 -7 -23 -3 -49 10 -47
24 -64 25 -110 6 -30 -13 -38 -13 -62 -1 -38 20 -82 19 -119 -4z"/>
<path d="M2718 63 c7 -3 16 -2 19 1 4 3 -2 6 -13 5 -11 0 -14 -3 -6 -6z"/>
</g>
</svg>
